<?xml version="1.0" encoding="utf-8"?>
<!-- Generator: Adobe Illustrator 17.0.0, SVG Export Plug-In . SVG Version: 6.00 Build 0)  -->
<!DOCTYPE svg PUBLIC "-//W3C//DTD SVG 1.1//EN" "http://www.w3.org/Graphics/SVG/1.1/DTD/svg11.dtd">
<svg version="1.1" xmlns="http://www.w3.org/2000/svg" xmlns:xlink="http://www.w3.org/1999/xlink" x="0px" y="0px"
     width="1600px"
     height="1200px" viewBox="0 0 1600 1200" style="enable-background:new 0 0 1600 1200;" xml:space="preserve">
<style type="text/css">
	.st0{fill:#2A3044;}
	.st1{fill:#FFFFFF;}
	.st2{fill:#24B6FF;}
	.st3{fill:#27D6FF;}
	.st4{opacity:0.26;fill:#2C5693;}
</style>
    <g id="Layer_1">
	<rect id="XMLID_1_" x="-16.5" y="-12.4" class="st0" width="1633" height="1224.8"/>
</g>
    <g id="Layer_2">
	<g id="XMLID_55_">
		<g id="XMLID_21_">
			<path id="XMLID_22_" class="st1" d="M802,556.2c-2.1-0.5-6.9-1.1-9.7-1.1c-5.2,0-9.8,0.5-9.8,5.2c0,7.9,22.1,14,22.1,25.1
				c0,7.3-5.7,9.5-13.1,9.5c-5,0-10.1-1.1-13.2-2.1l0.8-3.2c3,1,7.8,2.1,12.6,2.1c5.3,0,9-1.5,9-5.7c0-9.2-22.3-15.5-22.3-25.4
				c0-7.5,6.7-8.9,13.8-8.9c3.9,0,8.2,0.6,10.4,1L802,556.2z"/>
            <path id="XMLID_24_" class="st1" d="M820.3,552.4V571h25v-18.6h3.8v42h-3.8v-20h-25v20h-3.8v-42H820.3z"/>
            <path id="XMLID_26_" class="st1" d="M866.4,594.4h-3.8v-27.3c0-8.8,3.7-15.3,15.2-15.3c11.6,0,15.2,6.5,15.2,15.3v27.3h-3.8
				v-16.7h-22.8V594.4z M889.3,574.4v-7.2c0-6.8-2.2-12.1-11.4-12.1c-9.2,0-11.4,5.3-11.4,12.1v7.2H889.3z"/>
            <path id="XMLID_29_" class="st1"
                  d="M909.9,552.4l26,26.8v-26.8h3.7v42h-3.7v-10L910.3,558v36.4h-3.7v-42H909.9z"/>
            <path id="XMLID_31_" class="st1" d="M977.4,552.4v3.3h-19.8V571H975v3.3h-17.5v11.4c0,3.7,2.2,5.3,5.9,5.3h14.8v3.3h-14.8
				c-6,0-9.7-3.1-9.7-8.6v-33.3H977.4z"/>
            <path id="XMLID_33_" class="st1" d="M794.2,607.1c9.9,0,15.3,3.2,15.3,12.9c0,9.5-5.6,13.3-15.7,13.3c-2.7,0-5.6-0.3-8.8-0.8V649
				h-3.8v-42H794.2z M785,629.1c3.3,0.6,6.2,0.8,8.9,0.8c8.6,0,11.6-3.5,11.6-10c0-7.3-3.3-9.6-11.3-9.6H785V629.1z"/>
            <path id="XMLID_36_" class="st1" d="M822.9,649h-3.8v-27.3c0-8.8,3.7-15.3,15.2-15.3c11.6,0,15.2,6.5,15.2,15.3V649h-3.8v-16.7
				h-22.8V649z M845.8,629v-7.2c0-6.8-2.2-12.1-11.4-12.1c-9.2,0-11.4,5.3-11.4,12.1v7.2H845.8z"/>
            <path id="XMLID_39_" class="st1" d="M888,607.1v3.3h-14.6V649h-3.8v-38.6h-14.6v-3.3H888z"/>
            <path id="XMLID_41_" class="st1" d="M929,607.1v3.3h-14.6V649h-3.8v-38.6H896v-3.3H929z"/>
            <path id="XMLID_43_" class="st1" d="M957.6,607.1v3.3h-19.8v15.3h17.5v3.3h-17.5v11.4c0,3.7,2.2,5.3,5.9,5.3h14.8v3.3h-14.8
				c-6,0-9.7-3.1-9.7-8.6v-33.3H957.6z"/>
            <path id="XMLID_45_" class="st1" d="M982.6,607.1c9.9,0,15.3,2.8,15.3,12.6c0,6.9-3.3,10.4-8.8,11.9c2.7,1.6,3.9,3.7,5.4,7.3
				l4.2,10.2h-4l-3.9-9.3c-1.6-3.7-3.8-7.1-8.6-7.1c-2.7,0-5.6-0.3-8.8-0.8V649h-3.8v-42H982.6z M973.4,628.4
				c3.3,0.6,6.2,0.8,8.9,0.8c8.6,0,11.6-3.1,11.6-9.6c0-7.3-3.3-9.3-11.3-9.3h-9.2V628.4z"/>
            <path id="XMLID_48_" class="st1" d="M1031.3,610.8c-2.1-0.5-6.9-1.1-9.7-1.1c-5.2,0-9.8,0.5-9.8,5.2c0,7.9,22.1,14,22.1,25.1
				c0,7.3-5.7,9.5-13.1,9.5c-5,0-10.1-1.1-13.2-2.1l0.8-3.2c3,1,7.8,2.1,12.6,2.1c5.3,0,9-1.5,9-5.7c0-9.2-22.3-15.5-22.3-25.4
				c0-7.5,6.7-8.9,13.8-8.9c3.9,0,8.2,0.6,10.4,1L1031.3,610.8z"/>
            <path id="XMLID_50_" class="st1" d="M1075.6,628.1c0,15.7-6.3,21.6-17.2,21.6c-10.9,0-17.2-5.9-17.2-21.6
				c0-15.8,6.3-21.6,17.2-21.6C1069.3,606.4,1075.6,612.2,1075.6,628.1z M1045.3,628.1c0,13.7,4.6,18.3,13.2,18.3
				c8.6,0,13.2-4.6,13.2-18.3c0-13.7-4.6-18.3-13.2-18.3C1049.9,609.8,1045.3,614.4,1045.3,628.1z"/>
            <path id="XMLID_53_" class="st1"
                  d="M1089,607.1l26,26.8v-26.8h3.7v42h-3.7v-10l-25.6-26.3V649h-3.7v-42H1089z"/>
		</g>
        <g id="XMLID_17_">
			<g id="XMLID_13_">
				<polygon id="XMLID_14_" class="st2" points="481.3,552.6 481.3,570.5 481.3,581.9 481.3,597.9 481.3,619.4 556.6,619.4 
					556.6,631 481.3,631 481.3,672.5 598.1,672.5 598.1,652.4 598.1,631 598.1,619.4 598.1,607.1 598.1,581.9 522.9,581.9 
					522.9,570.5 598.1,570.5 598.1,529 481.3,529 				"/>
                <polygon id="XMLID_15_" class="st2" points="610,529 610,570.5 685.3,570.5 685.3,581.9 651.5,581.9 610,581.9 610,619.4
					610,672.5 651.5,672.5 651.5,619.4 726.8,619.4 726.8,597.9 726.8,581.9 726.8,570.5 726.8,552.6 726.8,529 				"/>
			</g>
            <path id="XMLID_4_" class="st3" d="M481.3,529c2,1.9,116.8,41.5,116.8,41.5V529H481.3z"/>
            <polygon id="XMLID_5_" class="st3" points="610,581.9 651.5,672.5 610,672.5 			"/>
            <polygon id="XMLID_6_" class="st3" points="685.3,581.9 726.8,581.9 726.8,619.4 610,581.9 			"/>
            <polygon id="XMLID_7_" class="st3" points="481.3,619.4 598.1,581.9 598.1,619.4 			"/>
            <polygon id="XMLID_9_" class="st3" points="481.3,631 598.1,672.5 481.3,672.5 			"/>
            <polygon id="XMLID_10_" class="st3" points="610,570.5 726.8,529 610,529 			"/>
            <polygon id="XMLID_11_" class="st4" points="610,581.9 651.5,581.9 651.5,672.5 			"/>
            <polygon id="XMLID_12_" class="st4" points="556.6,619.4 522.9,581.9 481.3,619.4 			"/>
            <polyline id="XMLID_16_" class="st4" points="522.9,570.5 481.3,570.5 598.1,529 598.1,570.5 			"/>
            <polygon id="XMLID_8_" class="st4" points="685.3,570.5 726.8,529 726.8,619.4 685.3,581.9 			"/>
            <polygon id="XMLID_18_" class="st4" points="481.3,672.5 556.6,631 481.3,631 			"/>
            <polygon id="XMLID_19_" class="st4" points="610,529 685.3,570.5 610,570.5 			"/>
            <polygon id="XMLID_20_" class="st4" points="651.5,619.4 610,672.5 651.5,672.5 			"/>
		</g>
        <rect id="XMLID_3_" x="752.7" y="527.5" class="st1" width="3.4" height="145"/>
	</g>
</g>
</svg>
